<?xml version="1.0" encoding="UTF-8" standalone="no"?><!DOCTYPE svg PUBLIC "-//W3C//DTD SVG 1.1//EN" "http://www.w3.org/Graphics/SVG/1.1/DTD/svg11.dtd"><svg width="100%" height="100%" viewBox="0 0 24 24" version="1.1" xmlns="http://www.w3.org/2000/svg" xmlns:xlink="http://www.w3.org/1999/xlink" xml:space="preserve" xmlns:serif="http://www.serif.com/" style="fill-rule:evenodd;clip-rule:evenodd;stroke-linejoin:round;stroke-miterlimit:2;"><path d="M7,5c0,-1.105 0.895,-2 2,-2c1.105,0 2,0.895 2,2c0,0.342 -0.086,0.663 -0.237,0.945l0.581,0c2.209,0 4,1.791 4,4l0,1.279c0.586,0.349 0.979,0.989 0.979,1.721c0,1.104 -0.895,2 -2,2c-1.105,0 -2,-0.896 -2,-2c0,-0.749 0.412,-1.402 1.021,-1.745l0,-1.255c0,-1.105 -0.896,-2 -2,-2l-1.344,0l0,9.323c0.598,0.345 1,0.992 1,1.732c0,1.105 -0.895,2 -2,2c-1.105,0 -2,-0.895 -2,-2c0,-0.74 0.402,-1.387 1,-1.732l0,-10.536c-0.598,-0.345 -1,-0.992 -1,-1.732Z" style="fill:#fff;fill-rule:nonzero;"/></svg>