<?xml version="1.0" encoding="UTF-8" standalone="no"?><!DOCTYPE svg PUBLIC "-//W3C//DTD SVG 1.1//EN" "http://www.w3.org/Graphics/SVG/1.1/DTD/svg11.dtd"><svg width="100%" height="100%" viewBox="0 0 24 24" version="1.1" xmlns="http://www.w3.org/2000/svg" xmlns:xlink="http://www.w3.org/1999/xlink" xml:space="preserve" xmlns:serif="http://www.serif.com/" style="fill-rule:evenodd;clip-rule:evenodd;stroke-linejoin:round;stroke-miterlimit:2;"><path d="M21.264,2.293c-0.391,-0.391 -1.024,-0.391 -1.415,0l-0.872,0.872c-1.115,-0.532 -2.491,-0.337 -3.415,0.587l-10.607,10.606l5.657,5.657l10.607,-10.607c0.924,-0.923 1.119,-2.299 0.586,-3.414l0.873,-0.873c0.39,-0.39 0.39,-1.023 0,-1.414l-1.415,-1.414Zm-4.268,8.511l-6.383,6.383l-2.828,-2.829l6.383,-6.383l2.828,2.828Zm1.819,-1.818l0.991,-0.991c0.39,-0.39 0.39,-1.023 0,-1.414l-1.415,-1.414c-0.39,-0.391 -1.023,-0.391 -1.414,0l-0.991,0.991l2.829,2.828Z" style="fill:#fff;"/><path d="M2,22.95l2.122,-7.778l5.656,5.657l-7.778,2.121Z" style="fill:#fff;fill-rule:nonzero;"/></svg>