# Blender v2.83.0 OBJ File: ''
# www.blender.org
mtllib mushroom.mtl
o deco_mushrooms_A_Mesh.001
v 0.415269 0.000000 0.734192
v 0.624478 0.000000 0.435411
v -0.084442 0.000000 0.384291
v 0.124766 0.000000 0.085510
v 0.372757 0.151995 0.639266
v 0.520736 0.151995 0.427930
v 0.019299 0.151995 0.391772
v 0.167278 0.151995 0.180436
v 0.315475 0.487248 0.560832
v 0.145325 0.374376 0.218077
v 0.033392 0.500888 0.345734
v 0.045043 0.000000 0.731147
v 0.494992 0.000000 0.088555
v 0.429147 0.151995 0.182590
v 0.110888 0.151995 0.637112
v 0.083059 0.527515 0.496878
v 0.420080 0.458840 0.373723
v 0.348240 0.378971 0.199098
v 0.464140 0.450433 0.867110
v 0.746269 0.424259 0.355085
v 0.555055 0.310449 -0.098073
v 0.033241 0.294800 -0.037239
v -0.270712 0.487146 0.299308
v -0.149561 0.514187 0.686305
v 0.414344 0.731898 0.752321
v 0.641793 0.726688 0.330730
v 0.490645 0.631836 -0.013372
v 0.100198 0.608263 0.047020
v -0.147423 0.782674 0.309113
v -0.064893 0.792529 0.596542
v 0.307212 0.934238 0.524152
v 0.426961 0.934238 0.298535
v 0.361169 0.934238 0.155469
v 0.170924 0.934238 0.190278
v 0.030845 0.934238 0.332560
v 0.057827 0.934238 0.436868
v 0.737695 -0.000000 -0.514829
v 0.693073 -0.000000 -0.767895
v 0.314442 -0.000000 -0.440198
v 0.269820 -0.000000 -0.693264
v 0.669227 0.080497 -0.540941
v 0.637665 0.080497 -0.719941
v 0.369850 0.080497 -0.488153
v 0.338288 0.080497 -0.667153
v 0.601618 0.258048 -0.551478
v 0.346103 0.198271 -0.637465
v 0.353936 0.265272 -0.518108
v 0.551742 -0.000000 -0.331910
v 0.455772 -0.000000 -0.876183
v 0.469817 0.080497 -0.796536
v 0.537698 0.080497 -0.411558
v 0.453974 0.279373 -0.467555
v 0.560517 0.243003 -0.696801
v 0.437735 0.200704 -0.748006
v 0.828257 0.274624 -0.472959
v 0.713730 0.264070 -0.868585
v 0.392722 0.218176 -0.999078
v 0.163074 0.211865 -0.708819
v 0.179312 0.289429 -0.389740
v 0.432457 0.300334 -0.257303
v 0.746266 0.388127 -0.505337
v 0.649550 0.386026 -0.828671
v 0.402830 0.347776 -0.924795
v 0.238406 0.338270 -0.700199
v 0.245615 0.408602 -0.446274
v 0.429919 0.412576 -0.344200
v 0.582350 0.479197 -0.595875
v 0.529610 0.479197 -0.767927
v 0.425563 0.479197 -0.806422
v 0.348129 0.479197 -0.694307
v 0.349226 0.479197 -0.553643
v 0.414632 0.479197 -0.515121
v -0.329487 -0.000000 -0.008663
v -0.137886 -0.000000 -0.282298
v -0.787140 -0.000000 -0.329116
v -0.595539 -0.000000 -0.602751
v -0.368420 0.104642 -0.095600
v -0.232896 0.104642 -0.289149
v -0.692130 0.104642 -0.322265
v -0.556606 0.104642 -0.515813
v -0.420881 0.335448 -0.167433
v -0.576711 0.257740 -0.481341
v -0.679223 0.344838 -0.364428
v -0.668553 -0.000000 -0.011452
v -0.256473 -0.000000 -0.599962
v -0.316776 0.104642 -0.513841
v -0.608250 0.104642 -0.097573
v -0.633736 0.363169 -0.226004
v -0.325080 0.315890 -0.338794
v -0.390874 0.260904 -0.498722
v -0.284729 0.356996 0.113068
v -0.026344 0.343275 -0.355864
v -0.201465 0.283616 -0.770882
v -0.679362 0.275412 -0.715168
v -0.957733 0.376241 -0.406947
v -0.846779 0.390416 -0.052520
v -0.330334 0.504542 0.007940
v -0.122027 0.501811 -0.378169
v -0.260454 0.452089 -0.693310
v -0.618040 0.439731 -0.638001
v -0.844821 0.531159 -0.397966
v -0.769236 0.536325 -0.134729
v -0.397782 0.622929 -0.225953
v -0.288111 0.622929 -0.432581
v -0.348366 0.622929 -0.563606
v -0.522599 0.622929 -0.531727
v -0.650889 0.622929 -0.401420
v -0.626177 0.622929 -0.305891
v -0.221258 -0.000014 0.684179
v -0.214153 -0.000014 0.612828
v -0.265459 -0.000014 0.562738
v -0.445607 0.909992 0.697070
v -0.244069 0.329022 0.733099
v -0.309544 0.658057 0.738748
v -0.178288 0.329022 0.599774
v -0.270026 0.658057 0.633163
v -0.314379 0.329022 0.539925
v -0.368167 0.658057 0.577682
v -0.205982 0.266474 0.571257
v -0.259160 0.532959 0.541709
v -0.358559 0.532959 0.507225
v -0.325196 0.266474 0.529899
v -0.164625 0.266474 0.452043
v -0.224677 0.532959 0.442309
v -0.407198 0.737001 0.434671
v -0.295383 -0.000011 0.515444
v -0.220437 -0.000011 0.541444
v -0.194438 -0.000011 0.466498
v 0.138335 0.251763 -0.317429
v 0.216547 0.486271 -0.289869
v 0.358002 0.486271 -0.266238
v 0.307988 0.251763 -0.289088
v 0.109993 0.251763 -0.147776
v 0.192916 0.486271 -0.148415
v 0.439940 0.665827 -0.179850
v 0.271227 0.017256 -0.262851
v 0.164572 0.017256 -0.280668
v 0.146754 0.017256 -0.174013
v 0.010500 0.329022 -0.733247
v 0.078914 0.658058 -0.686383
v 0.209433 0.658058 -0.626946
v 0.167037 0.329022 -0.661961
v -0.060786 0.329022 -0.576709
v 0.019478 0.658058 -0.555864
v 0.266221 0.909992 -0.522294
v 0.124738 -0.000014 -0.646133
v 0.026329 -0.000014 -0.690947
v -0.018486 -0.000014 -0.592538
vt 0.449219 0.878906
vt 0.453125 0.902344
vt 0.449219 0.902344
vt 0.457031 0.902344
vt 0.457031 0.878906
vt 0.464844 0.878906
vt 0.449219 0.902344
vt 0.457031 0.878906
vt 0.449219 0.878906
vt 0.449219 0.902344
vt 0.445312 0.878906
vt 0.453125 0.957031
vt 0.457031 0.941406
vt 0.453125 0.941406
vt 0.453125 0.902344
vt 0.449219 0.968750
vt 0.449219 0.964844
vt 0.449219 0.960938
vt 0.361143 0.771546
vt 0.341447 0.791311
vt 0.340626 0.748092
vt 0.528243 0.818840
vt 0.625000 0.828125
vt 0.531250 0.875000
vt 0.564419 0.759082
vt 0.562790 0.797400
vt 0.531250 0.687500
vt 0.625000 0.734375
vt 0.529542 0.745244
vt 0.437500 0.738281
vt 0.487998 0.764095
vt 0.437500 0.828125
vt 0.487554 0.796747
vt 0.437500 0.738281
vt 0.340773 0.713157
vt 0.343750 0.687500
vt 0.397521 0.809190
vt 0.395205 0.755690
vt 0.437500 0.828125
vt 0.340619 0.836172
vt 0.250000 0.828125
vt 0.343750 0.875000
vt 0.250000 0.742188
vt 0.290346 0.802250
vt 0.285173 0.762348
vt 0.359050 0.785510
vt 0.319597 0.775463
vt 0.321715 0.785476
vt 0.457031 0.878906
vt 0.449219 0.902344
vt 0.449219 0.878906
vt 0.457031 0.902344
vt 0.464844 0.878906
vt 0.449219 0.878906
vt 0.453125 0.902344
vt 0.457031 0.878906
vt 0.449219 0.902344
vt 0.445312 0.878906
vt 0.453125 0.902344
vt 0.449219 0.960938
vt 0.453125 0.957031
vt 0.449219 0.902344
vt 0.453125 0.941406
vt 0.449219 0.968750
vt 0.449219 0.964844
vt 0.457031 0.941406
vt 0.361143 0.771546
vt 0.341447 0.791311
vt 0.340626 0.748092
vt 0.528243 0.818840
vt 0.625000 0.828125
vt 0.531250 0.875000
vt 0.564419 0.759082
vt 0.562790 0.797400
vt 0.531250 0.687500
vt 0.625000 0.734375
vt 0.487998 0.764095
vt 0.529542 0.745244
vt 0.437500 0.828125
vt 0.437500 0.738281
vt 0.487554 0.796747
vt 0.437500 0.738281
vt 0.340773 0.713157
vt 0.343750 0.687500
vt 0.397521 0.809190
vt 0.395205 0.755690
vt 0.343750 0.875000
vt 0.437500 0.828125
vt 0.250000 0.828125
vt 0.340619 0.836172
vt 0.285173 0.762348
vt 0.290346 0.802250
vt 0.250000 0.742188
vt 0.359050 0.785510
vt 0.321715 0.785476
vt 0.319597 0.775463
vt 0.457031 0.878906
vt 0.449219 0.902344
vt 0.449219 0.878906
vt 0.457031 0.902344
vt 0.464844 0.878906
vt 0.449219 0.902344
vt 0.457031 0.878906
vt 0.449219 0.878906
vt 0.449219 0.902344
vt 0.445312 0.878906
vt 0.453125 0.902344
vt 0.449219 0.960938
vt 0.453125 0.957031
vt 0.453125 0.941406
vt 0.453125 0.902344
vt 0.449219 0.968750
vt 0.449219 0.964844
vt 0.457031 0.941406
vt 0.361143 0.771546
vt 0.341447 0.791311
vt 0.340626 0.748092
vt 0.528243 0.818840
vt 0.625000 0.828125
vt 0.531250 0.875000
vt 0.564419 0.759082
vt 0.562790 0.797400
vt 0.531250 0.687500
vt 0.625000 0.734375
vt 0.487998 0.764095
vt 0.529542 0.745244
vt 0.437500 0.828125
vt 0.437500 0.738281
vt 0.487554 0.796747
vt 0.437500 0.738281
vt 0.340773 0.713157
vt 0.343750 0.687500
vt 0.397521 0.809190
vt 0.395205 0.755690
vt 0.343750 0.875000
vt 0.437500 0.828125
vt 0.250000 0.828125
vt 0.340619 0.836172
vt 0.285173 0.762348
vt 0.290346 0.802250
vt 0.250000 0.742188
vt 0.359050 0.785510
vt 0.321715 0.785476
vt 0.319597 0.775463
vt 0.102922 0.832757
vt 0.075578 0.670018
vt 0.112036 0.670018
vt 0.084693 0.832757
vt 0.112036 0.670018
vt 0.102922 0.832757
vt 0.102922 0.832757
vt 0.075578 0.670018
vt 0.112036 0.670018
vt 0.093807 0.995497
vt 0.084693 0.832757
vt 0.066463 0.507278
vt 0.121151 0.507278
vt 0.075578 0.670018
vt 0.066463 0.507278
vt 0.084693 0.832757
vt 0.066463 0.507278
vt 0.102922 0.832757
vt 0.075578 0.670018
vt 0.112036 0.670018
vt 0.084693 0.832757
vt 0.112036 0.670018
vt 0.102922 0.832757
vt 0.084693 0.832757
vt 0.112036 0.670018
vt 0.102922 0.832757
vt 0.093807 0.995497
vt 0.084693 0.832757
vt 0.066463 0.507278
vt 0.121151 0.507278
vt 0.075578 0.670018
vt 0.066463 0.507278
vt 0.066463 0.507278
vt 0.075578 0.670018
vt 0.102922 0.832757
vt 0.075578 0.670018
vt 0.112036 0.670018
vt 0.084693 0.832757
vt 0.112036 0.670018
vt 0.102922 0.832757
vt 0.084693 0.832757
vt 0.112036 0.670018
vt 0.102922 0.832757
vt 0.093807 0.995497
vt 0.084693 0.832757
vt 0.066463 0.507278
vt 0.066463 0.507278
vt 0.075578 0.670018
vt 0.066463 0.507278
vt 0.075578 0.670018
vt 0.102922 0.832757
vt 0.075578 0.670018
vt 0.112036 0.670018
vt 0.084693 0.832757
vt 0.112036 0.670018
vt 0.102922 0.832757
vt 0.084693 0.832757
vt 0.112036 0.670018
vt 0.102922 0.832757
vt 0.093807 0.995497
vt 0.084693 0.832757
vt 0.121151 0.507278
vt 0.066463 0.507278
vt 0.121151 0.507278
vt 0.075578 0.670018
vt 0.066463 0.507278
vt 0.066463 0.507278
vt 0.075578 0.670018
vt 0.121151 0.507278
vt 0.121151 0.507278
vt 0.121151 0.507278
vt 0.121151 0.507278
vt 0.121151 0.507278
vt 0.121151 0.507278
vt 0.121151 0.507278
vt 0.121151 0.507278
vn 0.3728 0.5643 0.7366
vn 0.8697 0.4787 0.1207
vn 0.4248 0.4578 0.7810
vn 0.5296 0.4742 -0.7033
vn 0.8197 0.5643 0.0984
vn 0.4577 0.6027 -0.6537
vn -0.9338 0.3385 -0.1162
vn -0.3728 0.5643 -0.7366
vn -0.8197 0.5643 -0.0984
vn -0.4957 0.4493 0.7432
vn -0.4577 0.6027 0.6537
vn 0.9570 0.2840 0.0592
vn 0.5000 0.2250 -0.8363
vn -0.5744 0.0486 -0.8171
vn -0.4241 0.3581 -0.8318
vn -0.7285 0.2054 0.6536
vn -0.9967 0.0303 -0.0755
vn 0.3708 0.3303 0.8680
vn 0.4608 0.8875 -0.0031
vn -0.2259 0.8194 -0.5268
vn 0.1819 0.9001 0.3960
vn -0.1155 -0.9916 -0.0578
vn -0.0711 -0.9806 0.1827
vn -0.1245 -0.9905 -0.0586
vn 0.0207 -0.9563 0.2916
vn -0.0873 -0.9624 0.2572
vn -0.0519 -0.9478 0.3147
vn 0.0375 -0.9677 0.2492
vn -0.0539 -0.9219 0.3836
vn -0.0482 -0.9577 0.2836
vn 0.0089 -0.9185 0.3953
vn -0.0003 -0.9998 -0.0176
vn 0.0140 -0.9985 -0.0531
vn 0.9433 0.3312 -0.0230
vn 0.3386 0.5640 0.7532
vn 0.4069 0.4058 0.8184
vn 0.3929 0.4095 -0.8233
vn 0.8595 0.5109 -0.0151
vn 0.3875 0.3211 -0.8641
vn -0.3628 0.3520 -0.8628
vn -0.8550 0.3815 -0.3512
vn -0.3512 0.3123 -0.8827
vn -0.6377 0.4022 0.6570
vn -0.7918 0.5429 -0.2798
vn -0.5661 0.5949 0.5707
vn 0.2046 0.8144 -0.5431
vn -0.3058 0.9204 0.2436
vn -0.4172 0.8989 -0.1341
vn 0.5812 0.6728 -0.4577
vn 0.7993 0.5498 0.2426
vn 0.7028 0.6728 0.2313
vn -0.1207 0.5606 -0.8192
vn -0.1225 0.7088 -0.6947
vn -0.5812 0.6728 0.4577
vn -0.8487 0.4496 -0.2785
vn -0.7028 0.6728 -0.2313
vn 0.1678 0.5572 0.8132
vn 0.1225 0.7088 0.6947
vn 0.6615 0.5614 -0.4972
vn 0.8286 0.4399 0.3462
vn 0.6436 0.4358 -0.6292
vn -0.7139 0.4212 0.5595
vn -0.9837 0.0701 -0.1654
vn -0.0801 0.2560 0.9634
vn -0.7908 0.0310 0.6113
vn -0.3218 0.3116 -0.8941
vn 0.2501 0.9092 -0.3330
vn -0.4835 0.8592 -0.1672
vn 0.3046 0.9496 0.0736
vn 0.0481 -0.9957 0.0798
vn 0.1712 -0.9852 0.0000
vn 0.0468 -0.9961 0.0752
vn 0.0794 -0.9960 -0.0398
vn 0.2300 -0.9693 0.0863
vn -0.0660 -0.9885 0.1361
vn 0.0772 -0.9936 -0.0830
vn -0.0247 -0.9725 0.2316
vn -0.1587 -0.9616 0.2239
vn -0.0093 -0.9916 0.1289
vn 0.0005 -0.9826 0.1856
vn -0.0090 -0.9951 0.0983
vn 0.6027 0.5225 -0.6031
vn 0.6371 0.7297 0.2482
vn 0.7452 0.6131 0.2621
vn -0.2671 0.5725 -0.7752
vn 0.5256 0.6521 -0.5464
vn -0.8127 0.4907 -0.3142
vn -0.2724 0.4944 -0.8255
vn -0.7380 0.5832 0.3396
vn -0.7815 0.5495 -0.2955
vn 0.0014 0.7627 0.6468
vn -0.6326 0.7238 0.2756
vn 0.0124 0.6077 0.7941
vn -0.1821 0.8505 -0.4934
vn -0.3611 0.9295 0.0745
vn -0.0270 0.9699 0.2419
vn 0.7347 0.6728 0.0873
vn 0.3937 0.5498 0.7367
vn 0.3333 0.6728 0.6605
vn 0.4939 0.5606 -0.6647
vn 0.4046 0.7088 -0.5779
vn -0.9004 0.4212 -0.1092
vn -0.3333 0.6728 -0.6605
vn -0.7347 0.6728 -0.0873
vn -0.4564 0.5572 0.6937
vn -0.4046 0.7088 0.5779
vn 0.8193 0.5614 0.1162
vn 0.3411 0.4399 0.8307
vn 0.9000 0.4358 0.0102
vn -0.5787 0.0701 -0.8125
vn -0.4032 0.4496 -0.7971
vn -0.7378 0.2560 0.6245
vn -0.9914 0.0310 -0.1269
vn 0.4047 0.3116 -0.8597
vn 0.4123 0.9092 -0.0586
vn -0.2237 0.8592 -0.4601
vn 0.1634 0.9496 0.2675
vn -0.0224 -0.9957 0.0904
vn 0.1211 -0.9852 0.1211
vn -0.0200 -0.9961 0.0862
vn 0.0843 -0.9960 0.0280
vn 0.1016 -0.9693 0.2237
vn -0.1429 -0.9885 0.0496
vn 0.1133 -0.9936 -0.0041
vn -0.1812 -0.9725 0.1463
vn -0.2705 -0.9616 0.0461
vn -0.0977 -0.9916 0.0845
vn -0.1309 -0.9826 0.1316
vn -0.0758 -0.9951 0.0632
vn 0.8526 0.5225 -0.0003
vn 0.2750 0.7297 0.6260
vn 0.3416 0.6131 0.7123
vn 0.3593 0.5725 -0.7370
vn 0.7580 0.6521 -0.0147
vn -0.3525 0.4907 -0.7968
vn 0.3911 0.4944 -0.7763
vn -0.7620 0.5832 -0.2817
vn -0.3437 0.5495 -0.7615
vn -0.4563 0.7627 0.4584
vn -0.6422 0.7238 -0.2524
vn -0.5528 0.6077 0.5702
vn 0.2201 0.8505 -0.4777
vn -0.3081 0.9295 -0.2027
vn -0.1902 0.9699 0.1519
vn 0.8849 0.3107 0.3470
vn 0.8964 0.1055 0.4304
vn 0.9046 0.0873 0.4173
vn 0.4549 0.3107 -0.8346
vn 0.4100 0.1055 -0.9059
vn 0.4619 0.3449 -0.8171
vn -0.8997 -0.2887 0.3275
vn -0.9286 -0.1532 0.3380
vn 0.8158 0.4911 0.3053
vn 0.8791 0.3449 0.3290
vn 0.9790 -0.0797 0.1879
vn 0.4287 0.4911 -0.7583
vn 0.6292 -0.0797 -0.7732
vn 0.4247 0.0873 -0.9011
vn 0.6948 -0.1040 -0.7117
vn -0.8566 -0.4111 0.3118
vn -0.9334 -0.1152 0.3397
vn -0.3258 0.1090 0.9391
vn -0.3277 -0.0196 0.9446
vn -0.3276 -0.0272 0.9444
vn 0.8525 0.4311 0.2957
vn 0.9425 0.0692 0.3270
vn -0.4253 -0.2229 -0.8772
vn -0.4352 -0.0694 -0.8976
vn -0.4203 -0.2680 -0.8669
vn -0.3174 0.2496 0.9148
vn -0.3235 0.1601 0.9326
vn -0.3265 -0.0876 0.9411
vn 0.7172 0.6509 0.2488
vn 0.9411 -0.0876 0.3265
vn -0.4017 -0.3903 -0.8284
vn -0.4363 0.0000 -0.8998
vn -0.4354 -0.0638 -0.8980
vn 0.1631 0.1439 -0.9761
vn 0.1647 -0.0264 -0.9860
vn 0.1646 -0.0446 -0.9854
vn -0.8139 0.5648 -0.1360
vn -0.9808 0.1059 -0.1638
vn 0.5529 -0.3071 0.7746
vn 0.5774 -0.1100 0.8090
vn 0.5345 -0.3918 0.7489
vn 0.1530 0.3709 -0.9160
vn 0.1595 0.2501 -0.9550
vn 0.1633 -0.1349 -0.9773
vn -0.5933 0.7989 -0.0991
vn -0.9773 -0.1349 -0.1633
vn 0.4856 -0.5489 0.6804
vn 0.5809 0.0000 0.8140
vn 0.5782 -0.0968 0.8101
vn 0.4116 0.1165 -0.9039
vn 0.4144 -0.0211 -0.9099
vn 0.4143 -0.0303 -0.9097
vn -0.8077 0.4608 -0.3678
vn -0.9074 0.0763 -0.4132
vn 0.3402 -0.2404 0.9091
vn 0.3494 -0.0769 0.9338
vn 0.3351 -0.2931 0.8954
vn 0.3986 0.2738 -0.8753
vn 0.4079 0.1773 -0.8957
vn 0.4125 -0.0966 -0.9058
vn -0.6609 0.6874 -0.3010
vn -0.9058 -0.0966 -0.4125
vn 0.3174 -0.4239 0.8483
vn 0.3505 -0.0000 0.9366
vn 0.3496 -0.0702 0.9343
vn 0.9897 -0.1040 0.0986
usemtl atlas_retroForest_extras_A.001
s 1
f 1/1/1 6/2/2 5/3/3
f 14/4/4 2/5/5 13/6/6
f 7/7/7 4/8/8 3/9/9
f 15/10/10 3/9/9 12/11/11
f 17/12/12 5/3/3 6/2/2
f 18/13/13 6/2/2 14/4/4
f 7/7/7 10/14/14 8/15/15
f 7/7/7 16/16/16 11/17/17
f 4/8/8 14/4/4 13/6/6
f 1/1/1 15/10/10 12/11/11
f 15/10/10 9/18/18 16/16/16
f 8/15/15 18/13/13 14/4/4
f 32/19/19 34/20/20 31/21/21
f 9/22/22 20/23/23 19/24/24
f 18/25/25 20/23/23 17/26/26
f 18/25/25 22/27/27 21/28/28
f 10/29/29 23/30/30 22/27/27
f 11/31/31 24/32/32 23/30/30
f 9/22/22 24/32/32 16/33/33
f 20/34/34 25/35/35 19/36/36
f 20/34/34 27/37/37 26/38/38
f 21/39/39 28/40/40 27/37/37
f 23/41/41 28/40/40 22/42/42
f 24/43/43 29/44/44 23/41/41
f 24/43/43 25/35/35 30/45/45
f 26/38/38 31/21/21 25/35/35
f 26/38/38 33/46/46 32/19/19
f 28/40/40 33/46/46 27/37/37
f 29/44/44 34/20/20 28/40/40
f 29/44/44 36/47/47 35/48/48
f 30/45/45 31/21/21 36/47/47
f 34/20/20 36/47/47 31/21/21
f 38/49/49 41/50/50 37/51/51
f 50/52/52 38/49/49 49/53/53
f 39/54/54 44/55/55 40/56/56
f 51/57/57 39/54/54 48/58/58
f 42/59/59 45/60/60 41/50/50
f 50/52/52 53/61/61 42/59/59
f 43/62/62 46/63/63 44/55/55
f 43/62/62 52/64/64 47/65/65
f 40/56/56 50/52/52 49/53/53
f 37/51/51 51/57/57 48/58/58
f 51/57/57 45/60/60 52/64/64
f 44/55/55 54/66/66 50/52/52
f 68/67/67 70/68/68 67/69/69
f 45/70/70 56/71/71 55/72/72
f 54/73/73 56/71/71 53/74/74
f 54/73/73 58/75/75 57/76/76
f 47/77/77 58/75/75 46/78/78
f 47/77/77 60/79/79 59/80/80
f 45/70/70 60/79/79 52/81/81
f 56/82/82 61/83/83 55/84/84
f 56/82/82 63/85/85 62/86/86
f 58/87/87 63/85/85 57/88/88
f 59/89/89 64/90/90 58/87/87
f 59/89/89 66/91/91 65/92/92
f 60/93/93 61/83/83 66/91/91
f 62/86/86 67/69/69 61/83/83
f 63/85/85 68/67/67 62/86/86
f 64/90/90 69/94/94 63/85/85
f 64/90/90 71/95/95 70/68/68
f 65/92/92 72/96/96 71/95/95
f 66/91/91 67/69/69 72/96/96
f 70/68/68 72/96/96 67/69/69
f 74/97/97 77/98/98 73/99/99
f 86/100/100 74/97/97 85/101/101
f 79/102/102 76/103/103 75/104/104
f 87/105/105 75/104/104 84/106/106
f 78/107/107 81/108/108 77/98/98
f 86/100/100 89/109/109 78/107/107
f 79/102/102 82/110/110 80/111/111
f 79/102/102 88/112/112 83/113/113
f 76/103/103 86/100/100 85/101/101
f 73/99/99 87/105/105 84/106/106
f 87/105/105 81/108/108 88/112/112
f 80/111/111 90/114/114 86/100/100
f 104/115/115 106/116/116 103/117/117
f 81/118/118 92/119/119 91/120/120
f 90/121/121 92/119/119 89/122/122
f 90/121/121 94/123/123 93/124/124
f 83/125/125 94/123/123 82/126/126
f 83/125/125 96/127/127 95/128/128
f 81/118/118 96/127/127 88/129/129
f 92/130/130 97/131/131 91/132/132
f 92/130/130 99/133/133 98/134/134
f 94/135/135 99/133/133 93/136/136
f 95/137/137 100/138/138 94/135/135
f 95/137/137 102/139/139 101/140/140
f 96/141/141 97/131/131 102/139/139
f 98/134/134 103/117/117 97/131/131
f 99/133/133 104/115/115 98/134/134
f 100/138/138 105/142/142 99/133/133
f 100/138/138 107/143/143 106/116/116
f 101/140/140 108/144/144 107/143/143
f 102/139/139 103/117/117 108/144/144
f 106/116/116 108/144/144 103/117/117
f 116/145/145 113/146/146 115/147/147
f 116/148/148 117/149/149 118/150/150
f 114/151/151 117/152/152 113/153/152
f 116/145/145 112/154/153 114/155/154
f 109/156/155 115/147/147 113/146/146
f 118/150/150 112/154/156 116/148/148
f 111/157/157 115/158/158 110/159/159
f 114/151/151 112/154/160 118/160/151
f 111/161/161 113/153/152 117/152/152
f 120/162/162 122/163/163 119/164/164
f 120/165/165 123/166/166 124/167/165
f 124/168/167 122/169/168 121/170/169
f 120/162/162 125/171/170 121/172/171
f 126/173/172 119/164/164 122/163/163
f 124/167/165 125/171/173 120/165/165
f 128/174/174 119/175/166 127/176/174
f 121/170/169 125/171/175 124/168/167
f 128/177/176 122/169/168 123/178/177
f 130/179/178 132/180/179 129/181/180
f 130/182/181 133/183/182 134/184/181
f 134/185/183 132/186/184 131/187/185
f 130/179/178 135/188/186 131/189/187
f 136/190/188 129/181/180 132/180/179
f 134/184/181 135/188/189 130/182/181
f 137/191/190 133/183/182 129/192/182
f 131/187/185 135/188/191 134/185/183
f 138/193/192 132/186/184 133/194/193
f 140/195/194 142/196/195 139/197/196
f 140/198/197 143/199/198 144/200/197
f 144/201/199 142/202/200 141/203/201
f 140/195/194 145/204/202 141/205/203
f 147/206/204 142/196/195 146/207/204
f 144/200/197 145/204/205 140/198/197
f 148/208/206 139/209/198 147/210/206
f 141/203/201 145/204/207 144/201/199
f 148/211/208 142/202/200 143/212/209
f 1/1/1 2/5/5 6/2/2
f 14/4/4 6/2/2 2/5/5
f 7/7/7 8/15/15 4/8/8
f 15/10/10 7/7/7 3/9/9
f 17/12/12 9/18/18 5/3/3
f 18/13/13 17/12/12 6/2/2
f 7/7/7 11/17/17 10/14/14
f 7/7/7 15/10/10 16/16/16
f 4/8/8 8/15/15 14/4/4
f 1/1/1 5/3/3 15/10/10
f 15/10/10 5/3/3 9/18/18
f 8/15/15 10/14/14 18/13/13
f 32/19/19 33/46/46 34/20/20
f 9/22/22 17/26/26 20/23/23
f 18/25/25 21/28/28 20/23/23
f 18/25/25 10/29/29 22/27/27
f 10/29/29 11/31/31 23/30/30
f 11/31/31 16/33/33 24/32/32
f 9/22/22 19/24/24 24/32/32
f 20/34/34 26/38/38 25/35/35
f 20/34/34 21/39/39 27/37/37
f 21/39/39 22/42/42 28/40/40
f 23/41/41 29/44/44 28/40/40
f 24/43/43 30/45/45 29/44/44
f 24/43/43 19/36/36 25/35/35
f 26/38/38 32/19/19 31/21/21
f 26/38/38 27/37/37 33/46/46
f 28/40/40 34/20/20 33/46/46
f 29/44/44 35/48/48 34/20/20
f 29/44/44 30/45/45 36/47/47
f 30/45/45 25/35/35 31/21/21
f 34/20/20 35/48/48 36/47/47
f 38/49/49 42/59/59 41/50/50
f 50/52/52 42/59/59 38/49/49
f 39/54/54 43/62/62 44/55/55
f 51/57/57 43/62/62 39/54/54
f 42/59/59 53/61/61 45/60/60
f 50/52/52 54/66/66 53/61/61
f 43/62/62 47/65/65 46/63/63
f 43/62/62 51/57/57 52/64/64
f 40/56/56 44/55/55 50/52/52
f 37/51/51 41/50/50 51/57/57
f 51/57/57 41/50/50 45/60/60
f 44/55/55 46/63/63 54/66/66
f 68/67/67 69/94/94 70/68/68
f 45/70/70 53/74/74 56/71/71
f 54/73/73 57/76/76 56/71/71
f 54/73/73 46/78/78 58/75/75
f 47/77/77 59/80/80 58/75/75
f 47/77/77 52/81/81 60/79/79
f 45/70/70 55/72/72 60/79/79
f 56/82/82 62/86/86 61/83/83
f 56/82/82 57/88/88 63/85/85
f 58/87/87 64/90/90 63/85/85
f 59/89/89 65/92/92 64/90/90
f 59/89/89 60/93/93 66/91/91
f 60/93/93 55/84/84 61/83/83
f 62/86/86 68/67/67 67/69/69
f 63/85/85 69/94/94 68/67/67
f 64/90/90 70/68/68 69/94/94
f 64/90/90 65/92/92 71/95/95
f 65/92/92 66/91/91 72/96/96
f 66/91/91 61/83/83 67/69/69
f 70/68/68 71/95/95 72/96/96
f 74/97/97 78/107/107 77/98/98
f 86/100/100 78/107/107 74/97/97
f 79/102/102 80/111/111 76/103/103
f 87/105/105 79/102/102 75/104/104
f 78/107/107 89/109/109 81/108/108
f 86/100/100 90/114/114 89/109/109
f 79/102/102 83/113/113 82/110/110
f 79/102/102 87/105/105 88/112/112
f 76/103/103 80/111/111 86/100/100
f 73/99/99 77/98/98 87/105/105
f 87/105/105 77/98/98 81/108/108
f 80/111/111 82/110/110 90/114/114
f 104/115/115 105/142/142 106/116/116
f 81/118/118 89/122/122 92/119/119
f 90/121/121 93/124/124 92/119/119
f 90/121/121 82/126/126 94/123/123
f 83/125/125 95/128/128 94/123/123
f 83/125/125 88/129/129 96/127/127
f 81/118/118 91/120/120 96/127/127
f 92/130/130 98/134/134 97/131/131
f 92/130/130 93/136/136 99/133/133
f 94/135/135 100/138/138 99/133/133
f 95/137/137 101/140/140 100/138/138
f 95/137/137 96/141/141 102/139/139
f 96/141/141 91/132/132 97/131/131
f 98/134/134 104/115/115 103/117/117
f 99/133/133 105/142/142 104/115/115
f 100/138/138 106/116/116 105/142/142
f 100/138/138 101/140/140 107/143/143
f 101/140/140 102/139/139 108/144/144
f 102/139/139 97/131/131 103/117/117
f 106/116/116 107/143/143 108/144/144
f 116/145/145 114/155/154 113/146/146
f 116/148/148 115/158/158 117/149/149
f 114/151/151 118/160/151 117/152/152
f 109/156/155 110/213/210 115/147/147
f 111/157/157 117/149/149 115/158/158
f 111/161/161 109/214/161 113/153/152
f 120/162/162 121/172/171 122/163/163
f 120/165/165 119/175/166 123/166/166
f 124/168/167 123/178/177 122/169/168
f 126/173/172 127/215/172 119/164/164
f 128/174/174 123/166/166 119/175/166
f 128/177/176 126/216/176 122/169/168
f 130/179/178 131/189/187 132/180/179
f 130/182/181 129/192/182 133/183/182
f 134/185/183 133/194/193 132/186/184
f 136/190/188 137/217/188 129/181/180
f 137/191/190 138/218/190 133/183/182
f 138/193/192 136/219/192 132/186/184
f 140/195/194 141/205/203 142/196/195
f 140/198/197 139/209/198 143/199/198
f 144/201/199 143/212/209 142/202/200
f 147/206/204 139/197/196 142/196/195
f 148/208/206 143/199/198 139/209/198
f 148/211/208 146/220/208 142/202/200
