mtllib smooth-ship.mtl
o smooth-ship.obj
v 0.960152 -0.987573 -2.415908
v 0.000000 -1.289182 -3.214899
v 0.858321 -1.165537 -0.931047
v 0.000000 -1.265962 -0.935261
v 1.192775 -0.782433 0.099152
v 0.000000 -0.933240 0.122558
v 1.035401 -0.922720 0.938747
v 0.000000 -1.156914 0.873095
v 0.506339 0.051407 -2.503790
v 0.000000 0.171555 -2.441330
v 0.441309 0.214039 -0.973620
v 0.000000 0.315353 -0.955786
v 0.492346 0.067431 -0.114381
v 0.000000 0.177337 -0.075036
v 0.731634 -0.211349 0.821383
v 0.000000 -0.133692 0.912428
v 0.000000 -0.542360 -2.626192
v 0.988635 -0.192068 -2.026347
v 0.947658 -0.226800 -0.098507
v 0.853536 -0.055474 -0.732020
v 1.292862 -0.769739 -2.405262
v 1.445825 -0.557544 -0.593998
v 1.374334 -0.241264 -0.987665
v 1.497297 -0.834176 -2.587957
v 1.861393 -0.571817 -0.438742
v 1.892602 -0.030522 -2.509117
v 1.866747 0.055763 -0.955005
v 2.775977 -1.166654 -2.436695
v 2.635613 -0.885878 1.123647
v 2.772989 0.131611 -2.423034
v 2.895546 -0.001434 1.057979
v 1.404881 -0.253453 -2.066190
v 2.859196 0.135614 -0.957801
v 2.811739 -0.958050 -0.644505
v 0.723889 -1.308048 2.323927
v 0.000000 -1.296499 2.619001
v 0.515832 -0.733626 1.787067
v 0.000000 -0.624892 2.018987
v 0.714705 -0.514690 -2.872561
v 0.561504 -1.287605 -3.253642
v 1.544345 -1.739707 -5.092373
v 1.841076 -0.176646 -4.605453
v 2.790592 -1.799258 -5.145834
v 2.578611 -0.121985 -4.600253
v 3.684100 -0.954205 -2.384805
v 3.765041 -0.812772 1.150318
v 3.382664 -0.406659 -2.400683
v 3.446373 -0.294229 1.097235
v 3.549664 -0.297579 -0.840080
v 3.873934 -0.809256 -0.713866
v 3.420453 -1.211742 -3.696938
v 3.148654 -0.365327 -3.492610
v 2.535193 -0.997874 2.680293
v 2.788710 -0.276994 2.565696
v 3.317981 -0.976299 2.779629
v 3.090436 -0.444457 2.586664
v 2.009598 -1.384650 5.447720
v 2.306496 -0.744424 4.487469
v 1.888488 -0.093954 -3.201602
v 1.494931 -1.035050 -2.929245
v 2.747996 0.080586 -3.338340
v 1.537928 -0.297203 -3.384216
v 1.119414 -1.212963 -3.274123
v -0.960153 -0.987574 -2.415908
v -0.858321 -1.165537 -0.931047
v -1.192775 -0.782433 0.099153
v -1.035401 -0.922720 0.938747
v -0.506339 0.051407 -2.503790
v -0.441308 0.214040 -0.973620
v -0.492346 0.067431 -0.114381
v -0.731633 -0.211348 0.821383
v -0.988635 -0.192068 -2.026348
v -0.947658 -0.226799 -0.098508
v -0.853536 -0.055474 -0.732020
v -1.292862 -0.769740 -2.405262
v -1.445825 -0.557543 -0.593998
v -1.374334 -0.241263 -0.987665
v -1.497297 -0.834176 -2.587957
v -1.861393 -0.571817 -0.438742
v -1.892602 -0.030522 -2.509117
v -1.866747 0.055763 -0.955005
v -2.775977 -1.166654 -2.436695
v -2.635613 -0.885877 1.123647
v -2.772989 0.131611 -2.423036
v -2.895545 -0.001433 1.057979
v -1.404881 -0.253453 -2.066190
v -2.859196 0.135614 -0.957801
v -2.811739 -0.958050 -0.644505
v -0.723889 -1.308047 2.323928
v -0.515832 -0.733626 1.787067
v -0.714706 -0.514691 -2.872561
v -0.561504 -1.287605 -3.253642
v -1.544345 -1.739707 -5.092374
v -1.841076 -0.176647 -4.605453
v -2.790592 -1.799258 -5.145834
v -2.578611 -0.121985 -4.600254
v -3.684100 -0.954205 -2.384805
v -3.765041 -0.812770 1.150319
v -3.382664 -0.406659 -2.400683
v -3.446372 -0.294228 1.097235
v -3.549664 -0.297578 -0.840081
v -3.873934 -0.809256 -0.713865
v -3.420454 -1.211742 -3.696938
v -3.148654 -0.365327 -3.492610
v -2.535192 -0.997873 2.680294
v -2.788710 -0.276994 2.565697
v -3.317981 -0.976298 2.779630
v -3.090436 -0.444457 2.586665
v -2.009597 -1.384650 5.447721
v -2.306496 -0.744424 4.487469
v -1.888488 -0.093954 -3.201602
v -1.494931 -1.035050 -2.929245
v -2.747997 0.080586 -3.338340
v -1.537928 -0.297203 -3.384216
v -1.119414 -1.212964 -3.274123
vn 0.870775 -0.197232 -0.450390
vn 0.000000 -0.448237 -0.893915
vn 0.492496 -0.867049 0.075331
vn 0.000000 -0.984283 0.176596
vn 0.813589 -0.515706 0.268554
vn 0.000000 -0.995049 0.099387
vn 0.867143 -0.466318 0.174957
vn -0.000000 -0.994911 -0.100755
vn 0.435820 0.783483 -0.442963
vn -0.000000 0.831998 -0.554779
vn 0.367229 0.929752 0.026527
vn 0.000000 0.999569 0.029348
vn 0.377497 0.910153 0.170636
vn 0.000000 0.973608 0.228227
vn 0.547029 0.775830 0.314401
vn 0.000000 0.914515 0.404551
vn -0.000000 0.543609 -0.839339
vn 0.478949 0.775054 -0.412188
vn 0.643491 0.731354 0.225922
vn 0.393439 0.918667 0.035445
vn 0.044492 -0.480895 -0.875649
vn 0.742421 -0.457109 0.489757
vn 0.137869 0.952147 0.272780
vn -0.706484 -0.704167 -0.070916
vn -0.624148 -0.628256 0.464472
vn -0.521496 0.813680 -0.256839
vn -0.386222 0.891156 0.238061
vn 0.024808 -0.975390 0.219086
vn -0.671511 -0.731573 0.117786
vn 0.316844 0.944147 -0.090530
vn -0.239191 0.949915 0.201121
vn -0.279208 0.815972 -0.506195
vn 0.275751 0.960969 -0.022349
vn -0.110801 -0.992667 0.048319
vn 0.712062 0.155198 0.684749
vn 0.000000 -0.495223 0.868766
vn 0.422121 0.727691 0.540629
vn 0.000000 0.776907 0.629615
vn 0.472532 0.400088 -0.785266
vn 0.701345 -0.471149 -0.534915
vn -0.493424 -0.789976 -0.363966
vn -0.522851 0.745857 -0.412705
vn 0.567062 -0.633106 -0.526894
vn 0.388064 0.734132 -0.557186
vn 0.883686 -0.466421 -0.039375
vn 0.867293 -0.482235 0.123501
vn 0.811924 0.570165 -0.125265
vn 0.694667 0.705207 0.141848
vn 0.742329 0.668476 -0.045698
vn 0.892781 -0.450460 -0.005263
vn 0.884232 -0.450568 -0.122974
vn 0.807992 0.537106 -0.242208
vn -0.757419 -0.629814 -0.172194
vn -0.417153 0.900435 0.123288
vn 0.828990 -0.509078 0.231550
vn 0.658282 0.686434 0.308986
vn -0.348970 -0.926483 0.140887
vn 0.165295 0.931863 0.322969
vn -0.578042 0.815409 0.031242
vn -0.588822 -0.661535 0.464392
vn 0.295129 0.945744 -0.135894
vn -0.811258 0.571323 0.124302
vn -0.898080 -0.176957 0.402664
vn -0.870774 -0.197233 -0.450390
vn -0.492495 -0.867049 0.075331
vn -0.813589 -0.515705 0.268554
vn -0.867143 -0.466318 0.174957
vn -0.435820 0.783482 -0.442963
vn -0.367229 0.929752 0.026527
vn -0.377497 0.910154 0.170636
vn -0.547028 0.775830 0.314401
vn -0.478950 0.775054 -0.412188
vn -0.643490 0.731355 0.225922
vn -0.393439 0.918667 0.035445
vn -0.044492 -0.480896 -0.875648
vn -0.742421 -0.457108 0.489758
vn -0.137869 0.952147 0.272780
vn 0.706485 -0.704166 -0.070915
vn 0.624148 -0.628255 0.464472
vn 0.521496 0.813680 -0.256838
vn 0.386221 0.891157 0.238061
vn -0.024808 -0.975390 0.219086
vn 0.671511 -0.731573 0.117786
vn -0.316844 0.944147 -0.090530
vn 0.239191 0.949915 0.201121
vn 0.279207 0.815972 -0.506195
vn -0.275751 0.960969 -0.022349
vn 0.110801 -0.992667 0.048319
vn -0.712062 0.155198 0.684750
vn -0.422120 0.727691 0.540630
vn -0.472532 0.400088 -0.785266
vn -0.701344 -0.471150 -0.534915
vn 0.493422 -0.789976 -0.363967
vn 0.522850 0.745857 -0.412705
vn -0.567062 -0.633106 -0.526895
vn -0.388064 0.734132 -0.557186
vn -0.883686 -0.466421 -0.039375
vn -0.867293 -0.482235 0.123501
vn -0.811924 0.570165 -0.125265
vn -0.694667 0.705207 0.141848
vn -0.742329 0.668476 -0.045698
vn -0.892781 -0.450460 -0.005263
vn -0.884232 -0.450568 -0.122975
vn -0.807993 0.537106 -0.242208
vn 0.757420 -0.629813 -0.172194
vn 0.417152 0.900435 0.123289
vn -0.828990 -0.509078 0.231550
vn -0.658282 0.686434 0.308986
vn 0.348971 -0.926482 0.140888
vn -0.165295 0.931863 0.322969
vn 0.578042 0.815409 0.031242
vn 0.588822 -0.661535 0.464392
vn -0.295130 0.945744 -0.135894
vn 0.811258 0.571323 0.124302
vn 0.898080 -0.176957 0.402664
vt 0.643209 0.123508
vt 0.420230 0.161559
vt 0.407372 -0.025733
vt 0.651435 0.006911
vt 0.643209 0.123508
vt 0.651435 0.006911
vt 0.420230 0.161559
vt 0.407372 -0.025733
vt 0.804483 0.945720
vt 0.785260 1.040110
vt 0.571282 0.995148
vt 0.583686 0.914535
vt 0.467953 0.978804
vt 0.485298 0.889395
vt 0.104718 0.855061
vt 0.013655 0.853505
vt 0.012418 0.735691
vt 0.204274 0.733102
vt 0.074920 0.143307
vt 0.044481 0.053109
vt 0.224925 0.059852
vt 0.235934 0.169204
vt 0.121802 0.508492
vt 0.222261 0.581894
vt 0.314846 0.533773
vt 0.173754 0.445010
vt 0.596975 0.447873
vt 0.585075 0.482195
vt 0.594935 0.598240
vt 0.670948 0.495072
vt 0.530529 0.780099
vt 0.492790 0.869792
vt 0.548792 0.884324
vt 0.604502 0.827298
vt 0.694758 0.623886
vt 0.550074 0.688514
vt 0.625639 0.847310
vt 0.763187 0.782486
vt 0.695566 0.028566
vt 0.715410 0.141199
vt 0.841897 0.113047
vt 0.798094 0.010678
vt 0.340192 0.150325
vt 0.224981 0.062381
vt 0.367809 0.070817
vt 0.770511 0.423366
vt 0.738416 0.355904
vt 0.664189 0.398344
vt 0.886308 0.361681
vt 0.866681 0.296095
vt 0.738429 0.355836
vt 0.709603 0.766667
vt 0.683045 0.704742
vt 0.603281 0.736107
vt 0.604502 0.827298
vt 0.517558 0.147176
vt 0.286153 0.152882
vt 0.318302 0.019423
vt 0.564142 0.005206
vt 0.709603 0.766667
vt 0.683045 0.704742
vt 0.603281 0.736107
vt 0.366751 0.786928
vt 0.196773 0.709462
vt 0.318883 0.607028
vt 0.430144 0.644779
vt 0.367118 0.169275
vt 0.604661 0.140928
vt 0.560515 0.183009
vt 0.553633 0.221303
vt 0.220767 0.742685
vt 0.241363 0.586725
vt 0.562060 0.932222
vt 0.494130 0.930227
vt 0.503898 1.014019
vt 0.571908 1.025741
vt 0.494130 0.930227
vt 0.562060 0.932222
vt 0.571908 1.025741
vt 0.503898 1.014019
vt 0.335555 0.130968
vt 0.094328 0.144920
vt 0.075238 -0.005633
vt 0.351494 0.010661
vt 0.674456 0.631269
vt 0.742885 0.789869
vt 0.668090 0.828853
vt 0.610982 0.666366
vt 0.664536 0.933974
vt 0.876332 0.942758
vt 0.863513 1.008122
vt 0.651638 0.991377
vt 0.643209 0.123508
vt 0.651435 0.006911
vt 0.079521 0.487512
vt 0.004382 0.496761
vt 0.082211 0.490073
vt 0.287363 0.421014
vt 0.322570 0.654244
vt 0.206298 0.735768
vt 0.770511 0.423366
vt 0.738429 0.355836
vt 0.571908 1.025741
vt 0.503898 1.014019
vt 0.494130 0.930227
vt 0.562060 0.932222
vt 0.242774 0.408542
vt 0.240899 0.273981
vt 0.154803 0.272975
vt 0.152805 0.391140
vt 0.503898 1.014019
vt 0.494130 0.930227
vt 0.562060 0.932222
vt 0.571908 1.025741
vt 0.571908 1.025741
vt 0.503898 1.014019
vt 0.494130 0.930227
vt 0.562060 0.932222
vt 0.242774 0.290377
vt 0.152805 0.272975
vt 0.154679 0.407536
vt 0.240775 0.408542
vt 0.575464 0.868449
vt 0.517556 0.701798
vt 0.633430 0.050276
vt 0.646077 0.157121
vt 0.535833 0.162956
vt 0.415958 0.161091
vt 0.841897 0.113047
vt 0.715410 0.141199
vt 0.152805 0.391140
vt 0.242774 0.408542
vt 0.240899 0.273981
vt 0.154803 0.272975
vt 0.571908 1.025741
vt 0.338373 0.768379
vt 0.296648 0.884507
vt 0.324184 0.912228
vt 0.396854 0.809225
vt 0.571908 1.025741
vt 0.503898 1.014019
vt 0.494130 0.930227
vt 0.562060 0.932222
vt 0.794591 0.012169
vt 0.829894 0.117272
vt 0.644179 0.984762
vt 0.639175 0.928440
vt 0.504387 0.895637
vt 0.521030 0.946231
vt 0.646077 0.157121
vt 0.829894 0.117272
vt 0.311264 0.858702
vt 0.283728 0.830982
vt 0.367905 0.725928
vt 0.426385 0.766774
vt 0.873536 0.989992
vt 0.911708 0.973514
vt 0.242774 0.408542
vt 0.152805 0.391140
vt 0.606647 0.299640
vt 0.705037 0.302017
vt 0.676894 0.346303
vt 0.575653 0.329715
vt 0.420230 0.161559
vt 0.643209 0.123508
vt 0.643209 0.123508
vt 0.420230 0.161559
vt 0.804483 0.945720
vt 0.583686 0.914535
vt 0.485298 0.889395
vt 0.104718 0.855061
vt 0.204274 0.733102
vt 0.074920 0.143307
vt 0.235934 0.169204
vt 0.314846 0.533773
vt 0.173754 0.445010
vt 0.594935 0.598240
vt 0.585075 0.482195
vt 0.596975 0.447873
vt 0.670948 0.495072
vt 0.548792 0.884324
vt 0.492790 0.869792
vt 0.530529 0.780099
vt 0.604502 0.827298
vt 0.625639 0.847310
vt 0.550074 0.688514
vt 0.694758 0.623886
vt 0.763187 0.782486
vt 0.841897 0.113047
vt 0.715410 0.141199
vt 0.695566 0.028566
vt 0.798094 0.010678
vt 0.340192 0.150325
vt 0.664189 0.398344
vt 0.738416 0.355904
vt 0.770511 0.423366
vt 0.738429 0.355836
vt 0.866681 0.296095
vt 0.886308 0.361681
vt 0.603281 0.736107
vt 0.683045 0.704742
vt 0.709603 0.766667
vt 0.604502 0.827298
vt 0.318302 0.019423
vt 0.286153 0.152882
vt 0.517558 0.147176
vt 0.564142 0.005206
vt 0.603281 0.736107
vt 0.683045 0.704742
vt 0.709603 0.766667
vt 0.318883 0.607028
vt 0.196773 0.709462
vt 0.366751 0.786928
vt 0.430144 0.644779
vt 0.560515 0.183009
vt 0.604661 0.140928
vt 0.367118 0.169275
vt 0.553633 0.221303
vt 0.220767 0.742685
vt 0.241363 0.586725
vt 0.503898 1.014019
vt 0.494130 0.930227
vt 0.562060 0.932222
vt 0.571908 1.025741
vt 0.571908 1.025741
vt 0.562060 0.932222
vt 0.494130 0.930227
vt 0.503898 1.014019
vt 0.075238 -0.005633
vt 0.094328 0.144920
vt 0.335555 0.130968
vt 0.351494 0.010661
vt 0.668090 0.828853
vt 0.742885 0.789869
vt 0.674456 0.631269
vt 0.610982 0.666366
vt 0.863513 1.008122
vt 0.876332 0.942758
vt 0.664536 0.933974
vt 0.651638 0.991377
vt 0.643209 0.123508
vt 0.079521 0.487512
vt 0.322570 0.654244
vt 0.287363 0.421014
vt 0.082211 0.490073
vt 0.206298 0.735768
vt 0.738429 0.355836
vt 0.770511 0.423366
vt 0.494130 0.930227
vt 0.503898 1.014019
vt 0.571908 1.025741
vt 0.562060 0.932222
vt 0.154803 0.272975
vt 0.240899 0.273981
vt 0.242774 0.408542
vt 0.152805 0.391140
vt 0.562060 0.932222
vt 0.494130 0.930227
vt 0.503898 1.014019
vt 0.571908 1.025741
vt 0.494130 0.930227
vt 0.503898 1.014019
vt 0.571908 1.025741
vt 0.562060 0.932222
vt 0.154679 0.407536
vt 0.152805 0.272975
vt 0.242774 0.290377
vt 0.240775 0.408542
vt 0.517556 0.701798
vt 0.575464 0.868449
vt 0.535833 0.162956
vt 0.646077 0.157121
vt 0.633430 0.050276
vt 0.415958 0.161091
vt 0.841897 0.113047
vt 0.715410 0.141199
vt 0.240899 0.273981
vt 0.242774 0.408542
vt 0.152805 0.391140
vt 0.154803 0.272975
vt 0.571908 1.025741
vt 0.324184 0.912228
vt 0.296648 0.884507
vt 0.338373 0.768379
vt 0.396854 0.809225
vt 0.494130 0.930227
vt 0.503898 1.014019
vt 0.571908 1.025741
vt 0.562060 0.932222
vt 0.794591 0.012169
vt 0.829894 0.117272
vt 0.504387 0.895637
vt 0.639175 0.928440
vt 0.644179 0.984762
vt 0.521030 0.946231
vt 0.829894 0.117272
vt 0.646077 0.157121
vt 0.367905 0.725928
vt 0.283728 0.830982
vt 0.311264 0.858702
vt 0.426385 0.766774
vt 0.911708 0.973514
vt 0.873536 0.989992
vt 0.152805 0.391140
vt 0.242774 0.408542
vt 0.676894 0.346303
vt 0.705037 0.302017
vt 0.606647 0.299640
vt 0.575653 0.329715
vt 0.738416 0.355904
vt 0.664189 0.398344
vt 0.555425 0.655995
vt 0.373786 0.405372
vt 0.570918 0.482202
vt 0.814335 0.484281
vt 0.975341 0.464979
vt 0.896495 0.576924
vt 0.814335 0.484281
vt 0.975341 0.464979
vt 0.896495 0.576924
vt 0.738429 0.355836
vt 0.866681 0.296095
vt 0.886308 0.361681
vt 0.240899 0.273981
vt 0.242774 0.408542
vt 0.152805 0.391140
vt 0.154803 0.272975
vt 0.535833 0.162956
vt 0.098989 0.993330
vt 0.240775 0.408542
vt 0.242774 0.290377
vt 0.099567 0.297194
vt 0.171979 0.210764
vt 0.168077 0.407537
vt 0.142550 0.389749
vt 0.308141 0.336778
vt 0.664189 0.398344
vt 0.738416 0.355904
vt 0.555425 0.655995
vt 0.570918 0.482202
vt 0.373786 0.405372
vt 0.814335 0.484281
vt 0.896495 0.576924
vt 0.975341 0.464979
vt 0.814335 0.484281
vt 0.896495 0.576924
vt 0.975341 0.464979
vt 0.738429 0.355836
vt 0.886308 0.361681
vt 0.866681 0.296095
vt 0.240899 0.273981
vt 0.152805 0.391140
vt 0.242774 0.408542
vt 0.154803 0.272975
vt 0.535833 0.162956
vt 0.098989 0.993330
vt 0.242774 0.290377
vt 0.240775 0.408542
vt 0.099567 0.297194
vt 0.171979 0.210764
vt 0.142550 0.389749
vt 0.168077 0.407537
vt 0.308141 0.336778
g al-01
usemtl al-01
f 40/1/40 3/2/3 4/3/4 2/4/2 
f 3/2/3 5/5/5 6/6/6 4/3/4 
f 5/5/5 7/7/7 8/8/8 6/6/6 
f 9/9/9 10/10/10 12/11/12 11/12/11 
f 12/11/12 14/13/14 13/14/13 11/12/11 
f 13/15/13 14/16/14 16/17/16 15/18/15 
f 40/19/40 2/20/2 17/21/17 39/22/39 
f 38/23/38 36/24/36 35/25/35 37/26/37 
f 15/27/15 7/28/7 5/29/5 19/30/19 
f 19/31/19 5/32/5 22/33/22 23/34/23 
f 45/35/45 47/36/47 49/37/49 50/38/50 
f 50/39/50 49/40/49 48/41/48 46/42/46 
f 9/43/9 39/22/39 17/44/17 10/45/10 
f 20/46/20 11/47/11 13/48/13 19/30/19 
f 18/49/18 9/50/9 11/51/11 20/46/20 
f 21/52/21 22/53/22 3/54/3 1/55/1 
f 18/56/18 32/57/32 21/58/21 1/59/1 
f 32/60/32 18/61/18 20/62/20 23/34/23 
f 23/63/23 22/64/22 25/65/25 27/66/27 
f 26/67/26 24/68/24 21/69/21 32/70/32 
f 32/71/32 23/63/23 27/66/27 26/72/26 
f 24/73/24 28/74/28 34/75/34 25/76/25 
f 25/77/25 22/78/22 21/79/21 24/80/24 
f 44/81/44 43/82/43 41/83/41 42/84/42 
f 26/85/26 27/86/27 33/87/33 30/88/30 
f 31/89/31 27/90/27 25/91/25 29/92/29 
f 35/93/35 36/94/36 8/8/8 7/7/7 
f 37/95/37 15/18/15 16/17/16 38/96/38 
f 37/97/37 35/98/35 7/99/7 15/100/15 
f 18/49/18 1/101/1 39/102/39 9/50/9 
f 59/103/59 60/104/60 24/105/24 26/106/26 
f 62/107/62 42/108/42 41/109/41 63/110/63 
f 59/111/59 26/112/26 30/113/30 61/114/61 
f 51/115/51 52/116/52 47/117/47 45/118/45 
f 41/119/41 43/120/43 28/121/28 60/122/60 
f 49/123/49 47/124/47 30/88/30 33/87/33 
f 55/125/55 56/126/56 58/127/58 57/128/57 
f 50/39/50 46/42/46 29/129/29 34/130/34 
f 52/131/52 51/132/51 43/133/43 44/134/44 
f 45/118/45 50/135/50 34/75/34 28/74/28 
f 48/136/48 49/137/49 33/138/33 31/139/31 
f 52/140/52 61/141/61 30/142/30 47/143/47 
f 56/126/56 55/125/55 46/144/46 48/145/48 
f 53/146/53 54/147/54 31/148/31 29/149/29 
f 55/125/55 53/150/53 29/151/29 46/144/46 
f 54/152/54 56/153/56 48/154/48 31/155/31 
f 57/156/57 58/157/58 54/147/54 53/146/53 
f 59/158/59 61/159/61 44/134/44 42/108/42 
f 62/160/62 63/161/63 60/162/60 59/163/59 
f 4/3/4 65/164/65 92/165/92 2/4/2 
f 6/6/6 66/166/66 65/164/65 4/3/4 
f 8/8/8 67/167/67 66/166/66 6/6/6 
f 12/11/12 10/10/10 68/168/68 69/169/69 
f 70/170/70 14/13/14 12/11/12 69/169/69 
f 16/17/16 14/16/14 70/171/70 71/172/71 
f 17/21/17 2/20/2 92/173/92 91/174/91 
f 89/175/89 36/24/36 38/23/38 90/176/90 
f 66/177/66 67/178/67 71/179/71 73/180/73 
f 76/181/76 66/182/66 73/183/73 77/184/77 
f 101/185/101 99/186/99 97/187/97 102/188/102 
f 100/189/100 101/190/101 102/191/102 98/192/98 
f 17/44/17 91/174/91 68/193/68 10/45/10 
f 70/194/70 69/195/69 74/196/74 73/180/73 
f 69/197/69 68/198/68 72/199/72 74/196/74 
f 65/200/65 76/201/76 75/202/75 64/203/64 
f 75/204/75 86/205/86 72/206/72 64/207/64 
f 74/208/74 72/209/72 86/210/86 77/184/77 
f 79/211/79 76/212/76 77/213/77 81/214/81 
f 75/215/75 78/216/78 80/217/80 86/218/86 
f 81/214/81 77/213/77 86/219/86 80/220/80 
f 88/221/88 82/222/82 78/223/78 79/224/79 
f 75/225/75 76/226/76 79/227/79 78/228/78 
f 93/229/93 95/230/95 96/231/96 94/232/94 
f 87/233/87 81/234/81 80/235/80 84/236/84 
f 79/237/79 81/238/81 85/239/85 83/240/83 
f 8/8/8 36/94/36 89/241/89 67/167/67 
f 16/17/16 71/172/71 90/242/90 38/96/38 
f 67/243/67 89/244/89 90/245/90 71/246/71 
f 91/247/91 64/248/64 72/199/72 68/198/68 
f 78/249/78 112/250/112 111/251/111 80/252/80 
f 93/253/93 94/254/94 114/255/114 115/256/115 
f 84/257/84 80/258/80 111/259/111 113/260/113 
f 99/261/99 104/262/104 103/263/103 97/264/97 
f 82/265/82 95/266/95 93/267/93 112/268/112 
f 84/236/84 99/269/99 101/270/101 87/233/87 
f 110/271/110 108/272/108 107/273/107 109/274/109 
f 83/275/83 98/192/98 102/191/102 88/276/88 
f 95/277/95 103/278/103 104/279/104 96/280/96 
f 88/221/88 102/281/102 97/264/97 82/222/82 
f 87/282/87 101/283/101 100/284/100 85/285/85 
f 84/286/84 113/287/113 104/288/104 99/289/99 
f 98/290/98 107/273/107 108/272/108 100/291/100 
f 85/292/85 106/293/106 105/294/105 83/295/83 
f 83/296/83 105/297/105 107/273/107 98/290/98 
f 100/298/100 108/299/108 106/300/106 85/301/85 
f 106/293/106 110/302/110 109/303/109 105/294/105 
f 96/280/96 113/304/113 111/305/111 94/254/94 
f 112/306/112 115/307/115 114/308/114 111/309/111 
f 1/101/1 40/310/40 39/311/39 
f 15/27/15 19/30/19 13/48/13 
f 5/312/5 3/313/3 22/314/22 
f 19/31/19 23/34/23 20/62/20 
f 34/315/34 29/316/29 25/317/25 
f 33/318/33 27/319/27 31/320/31 
f 3/321/3 40/322/40 1/323/1 
f 28/324/28 43/325/43 51/326/51 
f 51/326/51 45/327/45 28/324/28 
f 55/125/55 57/128/57 53/328/53 
f 56/153/56 54/152/54 58/329/58 
f 28/121/28 24/330/24 60/331/60 
f 61/159/61 52/332/52 44/134/44 
f 41/333/41 60/334/60 63/335/63 
f 42/108/42 62/336/62 59/158/59 
f 64/248/64 91/337/91 92/338/92 
f 71/179/71 70/194/70 73/180/73 
f 66/339/66 76/340/76 65/341/65 
f 73/183/73 74/208/74 77/184/77 
f 88/342/88 79/343/79 83/344/83 
f 87/345/87 85/346/85 81/347/81 
f 65/348/65 64/349/64 92/350/92 
f 82/351/82 103/352/103 95/353/95 
f 103/352/103 82/351/82 97/354/97 
f 107/273/107 105/355/105 109/274/109 
f 108/299/108 110/356/110 106/300/106 
f 82/265/82 112/357/112 78/358/78 
f 113/304/113 96/280/96 104/359/104 
f 93/360/93 115/361/115 112/362/112 
f 94/254/94 111/305/111 114/363/114 
